<svg xmlns="http://www.w3.org/2000/svg" xmlns:xlink="http://www.w3.org/1999/xlink" width="387" zoomAndPan="magnify" viewBox="0 0 290.25 161.249994" height="215" preserveAspectRatio="xMidYMid meet" version="1.0"><defs><g/><clipPath id="b7b125731c"><path d="M 196.476562 1 L 289.042969 1 L 289.042969 160 L 196.476562 160 Z M 196.476562 1 " clip-rule="nonzero"/></clipPath></defs><g clip-path="url(#b7b125731c)"><path fill="#c4549d" d="M 242.789062 45.28125 C 240.863281 47.234375 238.765625 48.363281 236.839844 49.398438 C 235.28125 50.226562 233.960938 50.941406 233.960938 53.691406 L 233.960938 122.605469 L 251.617188 122.605469 L 251.617188 53.691406 C 251.617188 50.941406 250.296875 50.226562 248.738281 49.398438 C 246.796875 48.363281 244.699219 47.234375 242.789062 45.28125 Z M 242.789062 13.074219 C 241.546875 14.695312 240.101562 16.207031 238.496094 17.605469 L 238.460938 17.605469 C 234.214844 21.328125 228.792969 24.398438 222.875 27.035156 C 217.820312 29.296875 213.316406 31.492188 210.328125 34.449219 C 207.703125 37.058594 206.082031 40.570312 206.082031 45.949219 L 206.082031 122.796875 L 223.941406 122.796875 L 223.941406 53.691406 C 223.941406 44.976562 227.695312 42.972656 232.132812 40.605469 C 234.230469 39.488281 236.664062 38.1875 237.96875 33.574219 L 247.59375 33.574219 C 248.878906 38.171875 251.328125 39.472656 253.429688 40.605469 C 257.867188 42.972656 261.621094 44.976562 261.621094 53.691406 L 261.621094 132.625 L 233.738281 132.625 L 233.738281 150.503906 L 242.773438 150.503906 L 242.773438 150.519531 L 279.464844 150.519531 L 279.464844 45.949219 C 279.464844 40.570312 277.859375 37.058594 275.21875 34.449219 C 272.226562 31.492188 267.726562 29.296875 262.667969 27.035156 C 256.753906 24.398438 251.328125 21.328125 247.082031 17.605469 L 247.066406 17.605469 C 245.476562 16.191406 244.03125 14.679688 242.789062 13.074219 Z M 224.148438 132.609375 L 223.957031 132.609375 L 223.957031 132.402344 L 196.476562 132.402344 L 196.476562 45.949219 C 196.476562 37.660156 199.179688 32 203.617188 27.625 C 207.6875 23.601562 213.03125 20.960938 218.980469 18.304688 C 224.070312 16.03125 228.699219 13.4375 232.148438 10.402344 C 235.234375 7.679688 237.414062 4.597656 238.082031 1.050781 L 247.496094 1.050781 C 248.164062 4.597656 250.34375 7.679688 253.429688 10.402344 C 256.894531 13.4375 261.507812 16.015625 266.597656 18.304688 C 272.546875 20.960938 277.890625 23.601562 281.960938 27.625 C 286.382812 32 289.101562 37.660156 289.101562 45.949219 L 289.101562 160.0625 L 242.789062 160.0625 L 242.789062 160.078125 L 224.148438 160.078125 Z M 224.148438 132.609375 " fill-opacity="1" fill-rule="nonzero"/></g><g fill="#ffffff" fill-opacity="1"><g transform="translate(11.385059, 62.435141)"><g/></g></g><g fill="#ffffff" fill-opacity="1"><g transform="translate(24.045265, 62.435141)"><g><path d="M 20.65625 1.015625 C 15.976562 1.015625 12.242188 0.546875 9.453125 -0.390625 C 6.660156 -1.328125 4.644531 -2.625 3.40625 -4.28125 C 2.175781 -5.945312 1.5625 -7.832031 1.5625 -9.9375 C 1.5625 -11.46875 1.753906 -13.035156 2.140625 -14.640625 C 2.535156 -16.253906 2.910156 -17.675781 3.265625 -18.90625 L 9.359375 -17.5 C 9.128906 -16.582031 8.90625 -15.613281 8.6875 -14.59375 C 8.476562 -13.570312 8.375 -12.671875 8.375 -11.890625 C 8.375 -10.660156 8.804688 -9.585938 9.671875 -8.671875 C 10.535156 -7.765625 11.957031 -7.054688 13.9375 -6.546875 C 15.914062 -6.046875 18.582031 -5.796875 21.9375 -5.796875 L 21.9375 -5.65625 L 21.984375 -5.796875 C 28.285156 -5.796875 32.96875 -6.148438 36.03125 -6.859375 C 39.101562 -7.578125 40.640625 -8.832031 40.640625 -10.625 C 40.640625 -11.789062 40.441406 -13.1875 40.046875 -14.8125 C 39.660156 -16.4375 39.160156 -18.109375 38.546875 -19.828125 L 44.9375 -21.6875 C 45.351562 -20.582031 45.753906 -19.367188 46.140625 -18.046875 C 46.535156 -16.734375 46.851562 -15.421875 47.09375 -14.109375 C 47.34375 -12.796875 47.46875 -11.566406 47.46875 -10.421875 C 47.46875 -8.410156 47.023438 -6.679688 46.140625 -5.234375 C 45.265625 -3.785156 43.8125 -2.597656 41.78125 -1.671875 C 39.757812 -0.753906 37.023438 -0.078125 33.578125 0.359375 C 30.128906 0.796875 25.84375 1.015625 20.71875 1.015625 L 20.71875 0.96875 Z M 20.28125 -21.296875 C 19.332031 -21.296875 18.523438 -21.625 17.859375 -22.28125 C 17.191406 -22.945312 16.859375 -23.738281 16.859375 -24.65625 C 16.859375 -25.59375 17.191406 -26.398438 17.859375 -27.078125 C 18.523438 -27.765625 19.332031 -28.109375 20.28125 -28.109375 C 21.1875 -28.109375 21.960938 -27.765625 22.609375 -27.078125 C 23.265625 -26.398438 23.59375 -25.59375 23.59375 -24.65625 C 23.59375 -23.738281 23.265625 -22.945312 22.609375 -22.28125 C 21.960938 -21.625 21.1875 -21.296875 20.28125 -21.296875 Z M 28.703125 -21.234375 C 27.765625 -21.234375 26.960938 -21.554688 26.296875 -22.203125 C 25.628906 -22.859375 25.296875 -23.660156 25.296875 -24.609375 C 25.296875 -25.546875 25.628906 -26.351562 26.296875 -27.03125 C 26.960938 -27.71875 27.765625 -28.0625 28.703125 -28.0625 C 29.617188 -28.0625 30.398438 -27.71875 31.046875 -27.03125 C 31.691406 -26.351562 32.015625 -25.546875 32.015625 -24.609375 C 32.015625 -23.660156 31.691406 -22.859375 31.046875 -22.203125 C 30.398438 -21.554688 29.617188 -21.234375 28.703125 -21.234375 Z M 28.703125 -21.234375 "/></g></g></g><g fill="#ffffff" fill-opacity="1"><g transform="translate(73.948164, 62.435141)"><g><path d="M 3.90625 0 L 2.875 -35.671875 L 9.703125 -35.671875 L 10.71875 0 Z M 3.90625 0 "/></g></g></g><g fill="#ffffff" fill-opacity="1"><g transform="translate(87.25236, 62.435141)"><g><path d="M 0.78125 11.203125 L -1.703125 4.96875 C 2.453125 3.507812 5.472656 1.832031 7.359375 -0.0625 C 9.242188 -1.96875 10.1875 -3.992188 10.1875 -6.140625 C 10.1875 -7.503906 9.894531 -8.960938 9.3125 -10.515625 C 8.726562 -12.078125 7.960938 -13.769531 7.015625 -15.59375 L 13.40625 -18.671875 C 14.539062 -16.492188 15.425781 -14.410156 16.0625 -12.421875 C 16.695312 -10.441406 17.015625 -8.59375 17.015625 -6.875 C 17.015625 -2.875 15.710938 0.648438 13.109375 3.703125 C 10.503906 6.753906 6.394531 9.253906 0.78125 11.203125 Z M 0.78125 11.203125 "/></g></g></g><g fill="#ffffff" fill-opacity="1"><g transform="translate(107.184284, 62.435141)"><g><path d="M 15.453125 0.25 C 12.429688 0.25 10.097656 -0.0546875 8.453125 -0.671875 C 6.816406 -1.296875 5.664062 -2.265625 5 -3.578125 C 4.332031 -4.898438 3.96875 -6.566406 3.90625 -8.578125 L 2.875 -35.671875 L 9.703125 -35.671875 L 10.71875 -11.84375 C 10.78125 -10.34375 10.941406 -9.21875 11.203125 -8.46875 C 11.460938 -7.726562 11.953125 -7.226562 12.671875 -6.96875 C 13.390625 -6.707031 14.476562 -6.578125 15.9375 -6.578125 C 17.132812 -6.578125 18.007812 -6.257812 18.5625 -5.625 C 19.113281 -4.988281 19.390625 -4.203125 19.390625 -3.265625 C 19.390625 -2.253906 19.046875 -1.414062 18.359375 -0.75 C 17.679688 -0.0820312 16.710938 0.25 15.453125 0.25 Z M 15.453125 0.25 "/></g></g></g><g fill="#ffffff" fill-opacity="1"><g transform="translate(122.681473, 62.435141)"><g><path d="M 0 0.25 L 0.484375 -6.578125 C 1.554688 -6.578125 2.429688 -6.664062 3.109375 -6.84375 C 3.796875 -7.019531 4.359375 -7.425781 4.796875 -8.0625 C 5.234375 -8.695312 5.625 -9.65625 5.96875 -10.9375 C 6.3125 -12.21875 6.691406 -13.96875 7.109375 -16.1875 L 13.453125 -15.015625 C 13.316406 -14.296875 13.144531 -13.398438 12.9375 -12.328125 C 12.726562 -11.253906 12.625 -10.328125 12.625 -9.546875 C 12.625 -8.640625 12.914062 -7.914062 13.5 -7.375 C 14.082031 -6.84375 15.1875 -6.578125 16.8125 -6.578125 C 17.625 -6.578125 18.328125 -6.664062 18.921875 -6.84375 C 19.523438 -7.019531 20.046875 -7.425781 20.484375 -8.0625 C 20.929688 -8.695312 21.320312 -9.6875 21.65625 -11.03125 C 22 -12.382812 22.332031 -14.210938 22.65625 -16.515625 L 29.09375 -15.5 C 28.894531 -14.363281 28.695312 -13.160156 28.5 -11.890625 C 28.3125 -10.617188 28.21875 -9.660156 28.21875 -9.015625 C 28.21875 -8.398438 28.515625 -7.835938 29.109375 -7.328125 C 29.710938 -6.828125 30.941406 -6.578125 32.796875 -6.578125 C 34.097656 -6.578125 35.128906 -6.835938 35.890625 -7.359375 C 36.648438 -7.878906 37.03125 -8.789062 37.03125 -10.09375 C 37.03125 -11.289062 36.753906 -12.863281 36.203125 -14.8125 C 35.648438 -16.757812 35.003906 -18.804688 34.265625 -20.953125 L 41.125 -23 C 41.644531 -21.601562 42.109375 -20.117188 42.515625 -18.546875 C 42.921875 -16.972656 43.242188 -15.4375 43.484375 -13.9375 C 43.734375 -12.445312 43.859375 -11.164062 43.859375 -10.09375 C 43.859375 -6.738281 42.875 -4.175781 40.90625 -2.40625 C 38.945312 -0.632812 36.390625 0.25 33.234375 0.25 C 30.960938 0.25 29.191406 -0.015625 27.921875 -0.546875 C 26.660156 -1.085938 25.753906 -2.054688 25.203125 -3.453125 C 24.546875 -2.316406 23.835938 -1.488281 23.078125 -0.96875 C 22.316406 -0.445312 21.414062 -0.113281 20.375 0.03125 C 19.332031 0.175781 18.097656 0.25 16.671875 0.25 C 15.785156 0.25 14.90625 0.175781 14.03125 0.03125 C 13.15625 -0.113281 12.316406 -0.421875 11.515625 -0.890625 C 10.722656 -1.367188 10.035156 -2.128906 9.453125 -3.171875 C 8.347656 -1.671875 7 -0.722656 5.40625 -0.328125 C 3.8125 0.0546875 2.007812 0.25 0 0.25 Z M 25.484375 -29.921875 C 24.640625 -29.921875 23.921875 -30.226562 23.328125 -30.84375 C 22.742188 -31.46875 22.453125 -32.203125 22.453125 -33.046875 C 22.453125 -33.890625 22.742188 -34.601562 23.328125 -35.1875 C 23.921875 -35.769531 24.640625 -36.0625 25.484375 -36.0625 C 26.328125 -36.0625 27.039062 -35.769531 27.625 -35.1875 C 28.207031 -34.601562 28.5 -33.890625 28.5 -33.046875 C 28.5 -32.203125 28.207031 -31.46875 27.625 -30.84375 C 27.039062 -30.226562 26.328125 -29.921875 25.484375 -29.921875 Z M 21.578125 -23.5 C 20.734375 -23.5 20.019531 -23.804688 19.4375 -24.421875 C 18.851562 -25.035156 18.5625 -25.765625 18.5625 -26.609375 C 18.5625 -27.453125 18.851562 -28.164062 19.4375 -28.75 C 20.019531 -29.34375 20.734375 -29.640625 21.578125 -29.640625 C 22.421875 -29.640625 23.132812 -29.34375 23.71875 -28.75 C 24.3125 -28.164062 24.609375 -27.453125 24.609375 -26.609375 C 24.609375 -25.765625 24.3125 -25.035156 23.71875 -24.421875 C 23.132812 -23.804688 22.421875 -23.5 21.578125 -23.5 Z M 29.140625 -23.5 C 28.328125 -23.5 27.617188 -23.804688 27.015625 -24.421875 C 26.410156 -25.035156 26.109375 -25.765625 26.109375 -26.609375 C 26.109375 -27.453125 26.410156 -28.164062 27.015625 -28.75 C 27.617188 -29.34375 28.328125 -29.640625 29.140625 -29.640625 C 29.984375 -29.640625 30.695312 -29.34375 31.28125 -28.75 C 31.863281 -28.164062 32.15625 -27.453125 32.15625 -26.609375 C 32.15625 -25.765625 31.863281 -25.035156 31.28125 -24.421875 C 30.695312 -23.804688 29.984375 -23.5 29.140625 -23.5 Z M 29.140625 -23.5 "/></g></g></g><g fill="#ffffff" fill-opacity="1"><g transform="translate(168.978107, 62.435141)"><g><path d="M 3.90625 0 L 2.875 -35.671875 L 9.703125 -35.671875 L 10.71875 0 Z M 3.609375 15.0625 L 2.78125 11.65625 C 3.820312 11.457031 4.648438 11.289062 5.265625 11.15625 C 4.679688 10.738281 4.175781 10.1875 3.75 9.5 C 3.332031 8.820312 3.125 8.078125 3.125 7.265625 C 3.125 6.097656 3.382812 5.15625 3.90625 4.4375 C 4.425781 3.71875 5.09375 3.195312 5.90625 2.875 C 6.71875 2.550781 7.5625 2.390625 8.4375 2.390625 C 9.375 2.390625 10.234375 2.519531 11.015625 2.78125 L 10.625 6.296875 C 10.300781 6.222656 9.976562 6.15625 9.65625 6.09375 C 9.332031 6.03125 8.972656 6 8.578125 6 C 8.128906 6 7.738281 6.132812 7.40625 6.40625 C 7.082031 6.6875 6.921875 7.019531 6.921875 7.40625 C 6.921875 8.0625 7.1875 8.625 7.71875 9.09375 C 8.257812 9.5625 8.804688 9.894531 9.359375 10.09375 C 10.398438 9.800781 11.359375 9.472656 12.234375 9.109375 L 13.21875 12.375 C 11.976562 12.832031 10.472656 13.3125 8.703125 13.8125 C 6.929688 14.320312 5.234375 14.738281 3.609375 15.0625 Z M 3.609375 15.0625 "/></g></g></g><g fill="#ffffff" fill-opacity="1"><g transform="translate(7.238615, 130.545244)"><g/></g></g><g fill="#ffffff" fill-opacity="1"><g transform="translate(19.898822, 130.545244)"><g><path d="M 0.78125 11.203125 L -1.703125 4.96875 C 2.453125 3.507812 5.472656 1.832031 7.359375 -0.0625 C 9.242188 -1.96875 10.1875 -3.992188 10.1875 -6.140625 C 10.1875 -7.503906 9.894531 -8.960938 9.3125 -10.515625 C 8.726562 -12.078125 7.960938 -13.769531 7.015625 -15.59375 L 13.40625 -18.671875 C 14.539062 -16.492188 15.425781 -14.410156 16.0625 -12.421875 C 16.695312 -10.441406 17.015625 -8.59375 17.015625 -6.875 C 17.015625 -2.875 15.710938 0.648438 13.109375 3.703125 C 10.503906 6.753906 6.394531 9.253906 0.78125 11.203125 Z M 0.78125 11.203125 "/></g></g></g><g fill="#ffffff" fill-opacity="1"><g transform="translate(39.830746, 130.545244)"><g><path d="M 2.78125 11.203125 L 1.359375 4.390625 C 4.285156 4.023438 6.75 3.554688 8.75 2.984375 C 10.75 2.421875 12.300781 1.507812 13.40625 0.25 L 12.09375 0.25 C 9.03125 0.25 6.628906 -0.3125 4.890625 -1.4375 C 3.160156 -2.5625 2.296875 -4.488281 2.296875 -7.21875 C 2.296875 -8.675781 2.546875 -10.132812 3.046875 -11.59375 C 3.546875 -13.0625 4.25 -14.40625 5.15625 -15.625 C 6.070312 -16.84375 7.140625 -17.816406 8.359375 -18.546875 C 9.578125 -19.273438 10.898438 -19.640625 12.328125 -19.640625 C 14.242188 -19.640625 15.941406 -19.035156 17.421875 -17.828125 C 18.898438 -16.628906 20.050781 -15.039062 20.875 -13.0625 C 21.707031 -11.082031 22.125 -8.921875 22.125 -6.578125 L 25.96875 -6.578125 C 27.175781 -6.578125 28.054688 -6.257812 28.609375 -5.625 C 29.160156 -4.988281 29.4375 -4.203125 29.4375 -3.265625 C 29.4375 -2.253906 29.09375 -1.414062 28.40625 -0.75 C 27.726562 -0.0820312 26.753906 0.25 25.484375 0.25 L 21 0.25 C 19.738281 3.625 17.539062 6.226562 14.40625 8.0625 C 11.269531 9.894531 7.394531 10.941406 2.78125 11.203125 Z M 9.015625 -8.375 C 9.015625 -8.019531 9.132812 -7.65625 9.375 -7.28125 C 9.625 -6.90625 10.1875 -6.613281 11.0625 -6.40625 C 11.9375 -6.195312 13.332031 -6.171875 15.25 -6.328125 C 15.21875 -8.210938 14.910156 -9.695312 14.328125 -10.78125 C 13.742188 -11.875 12.976562 -12.421875 12.03125 -12.421875 C 11.351562 -12.421875 10.785156 -12.1875 10.328125 -11.71875 C 9.878906 -11.25 9.546875 -10.695312 9.328125 -10.0625 C 9.117188 -9.425781 9.015625 -8.863281 9.015625 -8.375 Z M 9.015625 -8.375 "/></g></g></g><g fill="#ffffff" fill-opacity="1"><g transform="translate(65.366995, 130.545244)"><g><path d="M 0 0.25 L 0.484375 -6.578125 L 14.515625 -6.578125 C 15.753906 -6.578125 16.640625 -6.257812 17.171875 -5.625 C 17.710938 -4.988281 17.984375 -4.203125 17.984375 -3.265625 C 17.984375 -2.253906 17.640625 -1.414062 16.953125 -0.75 C 16.273438 -0.0820312 15.300781 0.25 14.03125 0.25 Z M 0 0.25 "/></g></g></g><g fill="#ffffff" fill-opacity="1"><g transform="translate(79.450923, 130.545244)"><g><path d="M 0 0.25 L 0.484375 -6.578125 L 14.515625 -6.578125 C 15.753906 -6.578125 16.640625 -6.257812 17.171875 -5.625 C 17.710938 -4.988281 17.984375 -4.203125 17.984375 -3.265625 C 17.984375 -2.253906 17.640625 -1.414062 16.953125 -0.75 C 16.273438 -0.0820312 15.300781 0.25 14.03125 0.25 Z M 0 0.25 "/></g></g></g><g fill="#ffffff" fill-opacity="1"><g transform="translate(93.534852, 130.545244)"><g><path d="M 0 0.25 L 0.484375 -6.578125 L 14.515625 -6.578125 C 15.753906 -6.578125 16.640625 -6.257812 17.171875 -5.625 C 17.710938 -4.988281 17.984375 -4.203125 17.984375 -3.265625 C 17.984375 -2.253906 17.640625 -1.414062 16.953125 -0.75 C 16.273438 -0.0820312 15.300781 0.25 14.03125 0.25 Z M 0 0.25 "/></g></g></g><g fill="#ffffff" fill-opacity="1"><g transform="translate(107.61878, 130.545244)"><g><path d="M 0 0.25 L 0.484375 -6.578125 L 14.515625 -6.578125 C 15.753906 -6.578125 16.640625 -6.257812 17.171875 -5.625 C 17.710938 -4.988281 17.984375 -4.203125 17.984375 -3.265625 C 17.984375 -2.253906 17.640625 -1.414062 16.953125 -0.75 C 16.273438 -0.0820312 15.300781 0.25 14.03125 0.25 Z M 0 0.25 "/></g></g></g><g fill="#ffffff" fill-opacity="1"><g transform="translate(121.702709, 130.545244)"><g><path d="M 0 0.25 L 0.484375 -6.578125 L 14.515625 -6.578125 C 15.753906 -6.578125 16.640625 -6.257812 17.171875 -5.625 C 17.710938 -4.988281 17.984375 -4.203125 17.984375 -3.265625 C 17.984375 -2.253906 17.640625 -1.414062 16.953125 -0.75 C 16.273438 -0.0820312 15.300781 0.25 14.03125 0.25 Z M 0 0.25 "/></g></g></g><g fill="#ffffff" fill-opacity="1"><g transform="translate(135.786637, 130.545244)"><g><path d="M 0 0.25 L 0.484375 -6.578125 C 1.722656 -6.578125 2.707031 -6.691406 3.4375 -6.921875 C 4.164062 -7.148438 4.75 -7.613281 5.1875 -8.3125 C 5.625 -9.007812 6 -10.039062 6.3125 -11.40625 C 6.625 -12.769531 6.941406 -14.585938 7.265625 -16.859375 L 13.640625 -15.796875 C 13.515625 -15.046875 13.367188 -14.148438 13.203125 -13.109375 C 13.046875 -12.066406 12.96875 -11.109375 12.96875 -10.234375 C 12.96875 -9.453125 13.132812 -8.785156 13.46875 -8.234375 C 13.8125 -7.679688 14.429688 -7.265625 15.328125 -6.984375 C 16.222656 -6.710938 17.515625 -6.578125 19.203125 -6.578125 C 20.429688 -6.578125 21.304688 -6.257812 21.828125 -5.625 C 22.347656 -4.988281 22.609375 -4.203125 22.609375 -3.265625 C 22.609375 -2.253906 22.273438 -1.414062 21.609375 -0.75 C 20.941406 -0.0820312 19.976562 0.25 18.71875 0.25 C 16.113281 0.25 14.085938 -0.0234375 12.640625 -0.578125 C 11.203125 -1.128906 10.171875 -2.125 9.546875 -3.5625 C 8.347656 -1.863281 6.925781 -0.800781 5.28125 -0.375 C 3.644531 0.0390625 1.882812 0.25 0 0.25 Z M 10.4375 -21.34375 C 9.425781 -21.34375 8.570312 -21.679688 7.875 -22.359375 C 7.175781 -23.046875 6.828125 -23.890625 6.828125 -24.890625 C 6.828125 -25.898438 7.175781 -26.757812 7.875 -27.46875 C 8.570312 -28.1875 9.425781 -28.546875 10.4375 -28.546875 C 11.40625 -28.546875 12.238281 -28.1875 12.9375 -27.46875 C 13.644531 -26.757812 14 -25.898438 14 -24.890625 C 14 -23.890625 13.644531 -23.046875 12.9375 -22.359375 C 12.238281 -21.679688 11.40625 -21.34375 10.4375 -21.34375 Z M 10.4375 -21.34375 "/></g></g></g><g fill="#ffffff" fill-opacity="1"><g transform="translate(154.500224, 130.545244)"><g><path d="M 0 0.25 L 0.484375 -6.578125 C 1.984375 -6.578125 3.054688 -6.726562 3.703125 -7.03125 C 4.347656 -7.34375 4.734375 -7.929688 4.859375 -8.796875 C 4.992188 -9.660156 5.03125 -10.921875 4.96875 -12.578125 L 4.09375 -35.671875 L 10.96875 -35.671875 L 11.9375 -12.09375 C 12 -10.207031 11.925781 -8.507812 11.71875 -7 C 11.507812 -5.488281 11.003906 -4.195312 10.203125 -3.125 C 9.410156 -2.050781 8.191406 -1.21875 6.546875 -0.625 C 4.910156 -0.0390625 2.726562 0.25 0 0.25 Z M 0 0.25 "/></g></g></g><g fill="#ffffff" fill-opacity="1"><g transform="translate(168.974019, 130.545244)"><g><path d="M 3.90625 0 L 2.875 -35.671875 L 9.703125 -35.671875 L 10.71875 0 Z M 3.90625 0 "/></g></g></g></svg>